<?xml version="1.0" encoding="UTF-8" standalone="no"?>
<!-- Created with Inkscape (http://www.inkscape.org/) -->

<svg
   xmlns:dc="http://purl.org/dc/elements/1.1/"
   xmlns:cc="http://creativecommons.org/ns#"
   xmlns:rdf="http://www.w3.org/1999/02/22-rdf-syntax-ns#"
   xmlns:svg="http://www.w3.org/2000/svg"
   xmlns="http://www.w3.org/2000/svg"
   xmlns:sodipodi="http://sodipodi.sourceforge.net/DTD/sodipodi-0.dtd"
   xmlns:inkscape="http://www.inkscape.org/namespaces/inkscape"
   id="svg2"
   version="1.1"
   inkscape:version="0.91 r13725"
   width="330.85001"
   height="354.48749"
   xml:space="preserve"
   sodipodi:docname="smalllogo.svg"><metadata
     id="metadata8"><rdf:RDF><cc:Work
         rdf:about=""><dc:format>image/svg+xml</dc:format><dc:type
           rdf:resource="http://purl.org/dc/dcmitype/StillImage" /><dc:title></dc:title></cc:Work></rdf:RDF></metadata><defs
     id="defs6" /><sodipodi:namedview
     pagecolor="#ffffff"
     bordercolor="#666666"
     borderopacity="1"
     objecttolerance="10"
     gridtolerance="10"
     guidetolerance="10"
     inkscape:pageopacity="0"
     inkscape:pageshadow="2"
     inkscape:window-width="1596"
     inkscape:window-height="861"
     id="namedview4"
     showgrid="false"
     inkscape:zoom="1.3314997"
     inkscape:cx="85.074843"
     inkscape:cy="161.66621"
     inkscape:window-x="0"
     inkscape:window-y="37"
     inkscape:window-maximized="0"
     inkscape:current-layer="g12" /><g
     id="g10"
     inkscape:groupmode="layer"
     inkscape:label="ink_ext_XXXXXX"
     transform="matrix(1.25,0,0,-1.25,0,354.4875)"><g
       id="g12"
       transform="scale(0.1,0.1)"><path
         id="path26"
         style="fill:#573b75;fill-opacity:1;fill-rule:nonzero;stroke:#573b75;stroke-opacity:1;stroke-width:30;stroke-miterlimit:4;stroke-dasharray:none;stroke-linecap:round;stroke-linejoin:round"
         d="m 1686.4,1144.88 c -4.21,3.54 -8.78,7.1 -14.2,10.51 5.02,-3.39 9.66,-6.97 14.2,-10.51 m -257.16,799.08 18.42,-23.71 c 57.96,64.96 122.07,57.05 187.04,-18.44 l 10.56,23.7 c -64.11,100.97 -151.92,93.09 -216.02,18.45 M 995.898,899.02 c 12.312,9.14 25.562,18.359 40.102,27.589 -15.35,-6.91 -28.08,-16.668 -40.102,-27.589 M 955.586,2183.69 966.145,2160 c 61.475,43.88 125.645,51.82 187.055,18.43 l 18.47,23.73 c -70.24,50.06 -159.86,50.93 -216.084,-18.47 m -1.941,-249.64 10.543,-23.69 c 64.972,75.49 129.062,83.41 187.052,18.44 l 18.46,23.72 c -64.11,74.65 -151.96,82.55 -216.055,-18.47 M 995.898,899.02 c -29.945,-22.321 -53.578,-44.27 -71.386,-64.809 28.343,18.418 48.379,43.75 71.386,64.809 M 1915.22,693 c -237.2,12.27 -234.01,25.93 -536.6,-30.328 l 0,307.117 c 382.97,-1.051 390.54,108.101 307.78,175.091 81.79,-69.93 -61.48,-165.239 -341.55,-137.99 l -0.38,-38.968 c -52.23,-2.102 -126.74,29.738 -258.93,79.038 -2.57,0.95 -5.12,1.39 -7.71,2.05 2.53,36.06 4.13,73.94 4.9,113.53 28.43,77.94 36.22,137.84 15.33,228.74 -0.09,1.36 -0.31,2.69 -0.42,3.99 36.65,-13.25 78.81,-22.07 127.39,-24.63 103.52,-5.47 190.81,9.82 258.5,38.54 -28.56,-107.8 -20.47,-171.56 13.19,-260.59 -1.34,9.26 -1.93,17.9 -2.78,26.73 14.33,253.68 277.44,269.21 394.24,115.08 321.2,-424.091 172.23,-604.791 27.04,-597.4 z m -572.94,15.109 c -54.14,-17.808 -121,-22.961 -183.56,-15.16 -36.96,-21.219 -72.45,-43.687 -110.89,-54.32 -133.822,-36.879 -83.057,66.101 68.44,174.66 -54.33,-36.129 -59.36,-56.988 -151.102,-94.379 -86.91,-35.43 -116.223,27.809 -40.656,115.301 -17.633,-11.473 -38.539,-20.231 -65.532,-23.262 -131.585,-14.84 139.813,251.711 221.85,207.711 96.71,-51.89 179.12,-66.738 263.34,-87.16 l -1.89,-223.391 z M 757.504,737.73 c -170.734,155.18 -64.324,431.8 68.418,618.42 l -11.012,6.19 c 5.278,92.6 -91.176,130.46 -137.703,199.22 -61.305,90.59 43.297,257.26 134.578,283.22 34.621,0 -25.215,-115.66 -28.363,-158.15 27.562,33.08 72.074,137.02 103.851,141.65 52.184,7.56 62.375,-19.51 60.301,-65.31 -64.035,-108.57 -39.875,-265.67 98.816,-344.34 7.48,-17.91 14.26,-36.09 19.76,-54.96 -5.16,-29.53 -19.17,-60.66 -42.28,-93.07 L 856.637,1342 1047.78,1226.35 c 1.25,-64.19 0.46,-122.36 -1.98,-175.53 -69.683,-9.66 -139.784,-99.3 -196.245,-140.8 -61.989,-45.239 -42.52,-166.75 35.379,-99.071 -47.903,-56.289 -16.258,-142.39 62.07,-121.98 -47.629,-38.328 -111.266,-22.309 -189.5,48.761 z m 325.706,453.15 c 0.18,17.77 0.18,35.97 0,54.37 l -30.02,12.84 c 10.39,15.59 19.07,30.89 26.02,45.91 5.41,-35.13 7.11,-72.49 4,-113.12 z M 656.988,2314.9 c 66.649,202.59 185.438,224.42 254.465,237.8 l -119.015,91.96 c 77.39,-12.71 191.195,-40.34 270.132,-82.93 17.06,176.44 187.77,239.77 297.88,258.82 l 12.87,2.22 c -93.45,-22.34 -133.83,-72.13 -79.82,-203.7 244.41,144.24 491.62,20.23 656,-239.76 -57,66.05 -85.94,69.63 -150.14,55.33 43.17,-76.18 53.59,-288.94 36.24,-372.69 -19.87,-2.87 -41.18,-12.46 -63.39,-30.16 l -43.88,-16.72 c -49.13,181.66 -195.58,309 -347.41,408.56 10.95,-155.62 -15.26,-271.94 -57.18,-329.43 -5.61,357.77 -152.65,430.79 -264.75,301.85 -89.885,64.37 -178.138,-54.28 -145.373,-347.87 -31.394,7.68 -47.402,28.14 -78.82,121.67 -0.984,-37.78 4.312,-66.99 13.851,-90.84 -33.406,20.94 -62.886,34.8 -88.738,42.61 -9.004,105.3 5.227,191.53 27.324,257.76 -62.394,0.34 -76.211,-21.31 -130.246,-64.48 z M 1891.55,1334.23 c -99.94,134.35 -363.81,146.46 -398.43,-64.83 5.61,63.02 23.36,118.49 48.59,171.1 22.06,14.74 40.85,31.19 56,49.03 2.62,1.08 4.98,2.07 8.06,3.54 64.42,30.64 187.46,131.21 181.68,338.07 31.26,37.43 53.72,64.04 87.6,68.97 -28.85,13.69 -63.18,9.8 -92.02,-30.99 l -31,60.29 c 19.73,-140.6 -22.45,-305.79 -109.54,-372.08 -2.54,-1.91 -5.52,-4.3 -8.63,-6.9 33.92,93.04 -13.02,203.9 -162.69,286.1 252.29,-228.43 60.28,-418.64 -179.14,-437.62 -297.233,-23.45 -538.186,368.69 -110.61,478.5 -98.8,6.77 -173.17,-32.3 -218.221,-91.21 -2.371,36.21 -12.375,61.87 -41.539,70.21 -42.39,12.05 -61.449,-14.57 -61.187,-12.76 -0.883,15.33 -9.606,25.35 -26.758,26.17 -0.719,54.66 5.976,108.32 13.18,159.64 l -35.512,-100.13 c -34.34,24.32 -76.192,43.39 -110.52,21.38 39.379,-13.11 74.727,-19.48 106.035,-56.93 -0.273,-9.82 -0.179,-19.17 -0.179,-28.58 -1.91,-0.59 -3.594,-1 -5.61,-1.75 -43.382,-16.23 -81.304,-43.86 -109.73,-78.1 -4.293,5.83 -8.313,12.25 -11.711,19.71 -52.383,115.5 -101.707,382.3 170.227,271.01 20.539,-48.55 58.953,-74.5 97.859,-105.06 -30.691,246.33 17.707,452.35 113.526,397.42 160.04,137.2 225.58,-38.76 234.56,-335.71 88.88,123.36 109.55,211.57 101.18,351.82 58.64,-33.09 127.83,-87.53 184.71,-154.31 -51.07,22.98 -111.72,12.65 -162.38,-23.47 l 18.43,-23.72 c 61.46,33.4 125.59,25.48 187.03,-18.42 l 2.29,5.13 c 48.53,-74.14 77.68,-158.35 63.45,-243.19 l 105.06,110.55 c 161.17,39.55 161.88,-180.13 111.58,-290.93 -31.04,-68.31 -103.99,-65.76 -136.31,-57.66 l -15.1,-33.38 c 88.8,-26.29 172.54,54.04 190.82,97.1 55.8,131.49 8.65,287.75 -78.48,308.42 14.66,135.27 -0.78,278.79 -42.43,360.8 39.54,22.84 78.18,-14.06 152.84,-71.12 -149.17,292.98 -370.66,455.51 -669.2,313.52 -31.61,85.74 -3.19,139.84 85.06,162.46 l 44.91,7.64 c -104.79,13.34 -378.65,-40.08 -410.81,-223.6 -98.818,43.09 -207.084,62.23 -318.103,74.6 L 879.27,2557.32 c -164.622,-31.64 -237.875,-177.16 -279.676,-319.29 52.851,63.95 137.082,123.29 153.16,104.47 -22.211,-40.46 -37.379,-190.06 -26.918,-213.79 -137.969,14.43 -144.941,-177.47 -85.531,-317.61 5.758,-13.54 18.343,-30.7 35.215,-47.11 -41.875,-63.3 -52.375,-143.83 -7.723,-218.98 39.433,-66.42 124.176,-91.06 125.062,-170.46 l -9.437,5.24 C 556.926,944.789 656.988,784.539 699.117,742.43 c 28.496,-28.52 84.258,-71.668 138.379,-85.711 40.336,-10.539 71.766,-10.207 105.973,-2.41 -0.5,-20.911 22.308,-41.329 54.75,-41.629 32.461,-0.321 114.491,22.75 162.861,56.621 18.5,-3.352 132.52,-14.75 180.74,8.859 1.07,-12.91 1.07,-57.879 1.07,-57.879 0,0 153.98,20.43 170.35,21.66 19.48,1.489 64.11,6.75 78.63,8.329 14.48,1.531 54.22,8.968 124.95,5.57 89.03,-4.289 219.17,-11.199 271.95,1.82 30.6,6.602 77.47,30.059 98.43,55.192 86.66,108.418 6.47,349.948 -195.65,621.378" /><g
         transform="scale(1,-1)"
         style="font-size:320px;font-style:normal;font-weight:normal;line-height:125%;letter-spacing:0px;word-spacing:0px;fill:#573b75;fill-opacity:1;stroke:none;stroke-opacity:1;font-family:Sans;stroke-linecap:round;stroke-linejoin:round"
         id="text3017"><g
           style="font-style:normal;font-variant:normal;font-weight:normal;font-stretch:normal;font-size:128.00878906px;line-height:100%;font-family:'Times New Roman';-inkscape-font-specification:'Times New Roman, Normal';text-align:start;letter-spacing:0px;word-spacing:0px;writing-mode:lr-tb;text-anchor:start;fill:#573b75;fill-opacity:1;stroke:none;stroke-width:1px;stroke-linecap:butt;stroke-linejoin:miter;stroke-opacity:1"
           id="text4149"><path
             style="font-style:normal;font-variant:normal;font-weight:500;font-stretch:normal;font-size:960.06585693px;font-family:Haettenschweiler;-inkscape-font-specification:'Haettenschweiler Medium';fill:#573b75;fill-opacity:1;stroke:none;stroke-width:0.125px;stroke-opacity:1"
             d="M 63.205078 268.91797 C 48.961453 268.91797 41.841797 274.37053 41.841797 285.26953 L 41.841797 294.70703 C 41.841797 297.83441 42.799297 300.70809 44.716797 303.32422 C 46.628422 305.93897 51.514688 311.06056 59.367188 318.67969 C 63.428313 322.78081 65.462891 326.35202 65.462891 329.40039 L 65.462891 339.36719 C 65.462891 341.28219 64.340375 342.24219 62.09375 342.24219 C 59.768625 342.24219 58.605469 341.28219 58.605469 339.36719 L 58.605469 320.08594 L 41.841797 320.08594 L 41.841797 339.24805 C 41.841797 349.40916 48.727078 354.48828 62.501953 354.48828 C 76.782828 354.48828 83.923828 348.90093 83.923828 337.72461 L 83.923828 327.00195 C 83.923828 323.28958 82.877875 319.96781 80.78125 317.03906 C 78.686 314.10644 73.780203 308.9492 66.064453 301.56445 C 61.912078 297.42283 59.835938 293.79098 59.835938 290.66211 L 59.486328 285.21094 C 59.486328 281.97119 60.580109 280.34961 62.771484 280.34961 C 64.641609 280.34961 65.580078 281.18702 65.580078 282.86914 L 65.580078 298.33984 L 82.341797 298.33984 L 82.341797 283.80469 C 82.341797 273.88231 75.961453 268.91797 63.205078 268.91797 z M 221.05273 268.91797 C 206.55273 268.91797 199.30664 274.37053 199.30664 285.26953 L 199.30664 339.36719 C 199.30664 344.21339 201.28906 347.9458 205.25781 350.5625 C 209.21781 353.17969 214.44289 354.48828 220.93164 354.48828 C 227.22039 354.48828 232.3707 353.15869 236.37695 350.5 C 240.3807 347.84473 242.38477 344.09422 242.38477 339.24805 L 242.38477 285.1543 C 242.38477 274.33055 235.27148 268.91797 221.05273 268.91797 z M 169.05664 269.00977 C 157.14039 269.75827 151.18555 275.13667 151.18555 285.1543 L 151.18555 299.80664 L 167.71094 299.80664 L 167.71094 285.38672 C 167.71094 283.04447 169.00453 281.86914 171.58203 281.86914 C 174.08078 281.86914 175.33203 283.74655 175.33203 287.49805 C 175.33203 294.68705 174.19719 300.35259 171.92969 304.49609 L 151.18555 342.5918 L 151.18555 353.72656 L 193.32422 353.72656 L 193.32422 342.94336 L 170.73828 342.94336 L 191.50781 303.20508 C 192.71781 300.90145 193.32422 297.96931 193.32422 294.41406 C 193.32422 285.35306 191.92727 278.83302 189.13477 274.86914 C 187.94727 273.18302 186.23711 271.85838 184.00586 270.89062 C 182.31961 270.15812 180.1932 272.7827 177.9082 272.45508 C 176.0932 272.19683 173.44266 272.33203 171.25391 272.33203 C 170.21516 272.33203 170.01414 268.94964 169.05664 269.00977 z M 283.51562 269.33203 L 282.57812 313.39648 L 299.86328 313.86523 C 299.94141 310.4275 301.01549 308.70898 303.08594 308.70898 C 305.35172 308.70898 306.48438 309.70494 306.48438 311.69727 L 306.48438 339.64844 C 306.48438 341.4845 305.46889 342.40234 303.4375 342.40234 C 301.36705 342.40234 300.33203 341.4845 300.33203 339.64844 L 300.33203 318.08594 L 282.3418 318.08594 L 282.3418 339.00391 C 282.3418 349.08272 289.37403 354.12305 303.4375 354.12305 C 309.727 354.12305 314.80638 352.7951 318.67383 350.13867 C 322.54128 347.48224 324.47461 343.7308 324.47461 338.88672 L 324.47461 309.06055 C 324.47461 300.73966 319.62957 296.58008 309.94141 296.58008 C 305.37078 296.58008 302.16809 297.49792 300.33203 299.33398 L 301.15234 282.04688 L 322.07227 282.04688 L 324.94336 269.33203 L 283.51562 269.33203 z M 0 269.68164 L 0 353.72656 L 36.105469 353.72656 L 36.105469 342.94336 L 18.460938 342.94336 L 18.460938 313.4082 L 34.169922 313.4082 L 34.169922 303.20508 L 18.460938 303.20508 L 18.460938 280.4668 L 35.869141 280.4668 L 35.869141 269.68164 L 0 269.68164 z M 90.648438 269.68164 L 90.648438 353.72656 L 126.75195 353.72656 L 126.75195 342.94336 L 109.11133 342.94336 L 109.11133 313.4082 L 124.81641 313.4082 L 124.81641 303.20508 L 109.11133 303.20508 L 109.11133 280.4668 L 126.51953 280.4668 L 126.51953 276.6543 L 121.70508 275.61523 L 117.93359 272.69922 L 104.94531 272.30078 L 98.076172 269.68164 L 90.648438 269.68164 z M 258.14453 269.68164 C 258.14453 271.87152 257.2207 274.1148 255.37695 276.41992 C 253.5332 278.72455 251.2718 279.88086 248.5918 279.88086 L 248.5918 292.12695 L 255.625 292.12695 L 255.625 353.72656 L 274.08594 353.72656 L 274.08594 269.68164 L 258.14453 269.68164 z M 220.93164 280.4668 C 222.92414 280.4668 223.92383 281.3046 223.92383 282.98438 L 223.92383 340.24805 C 223.92383 341.9273 222.92414 342.76562 220.93164 342.76562 C 218.82039 342.76563 217.76758 341.9273 217.76758 340.24805 L 217.76758 282.98438 C 217.76758 281.30462 218.82039 280.4668 220.93164 280.4668 z "
             transform="matrix(8,0,0,8,0,-2835.9)"
             id="path4159" /></g></g></g></g></svg>