<?xml version="1.0" encoding="UTF-8" standalone="no"?>
<!-- Created with Inkscape (http://www.inkscape.org/) -->

<svg
   xmlns:dc="http://purl.org/dc/elements/1.1/"
   xmlns:cc="http://creativecommons.org/ns#"
   xmlns:rdf="http://www.w3.org/1999/02/22-rdf-syntax-ns#"
   xmlns:svg="http://www.w3.org/2000/svg"
   xmlns="http://www.w3.org/2000/svg"
   xmlns:sodipodi="http://sodipodi.sourceforge.net/DTD/sodipodi-0.dtd"
   xmlns:inkscape="http://www.inkscape.org/namespaces/inkscape"
   id="svg2"
   version="1.1"
   inkscape:version="0.48.5 r10040"
   width="330.85001"
   height="354.48749"
   xml:space="preserve"
   sodipodi:docname="smalllogo.pdf"><metadata
     id="metadata8"><rdf:RDF><cc:Work
         rdf:about=""><dc:format>image/svg+xml</dc:format><dc:type
           rdf:resource="http://purl.org/dc/dcmitype/StillImage" /><dc:title></dc:title></cc:Work></rdf:RDF></metadata><defs
     id="defs6" /><sodipodi:namedview
     pagecolor="#ffffff"
     bordercolor="#666666"
     borderopacity="1"
     objecttolerance="10"
     gridtolerance="10"
     guidetolerance="10"
     inkscape:pageopacity="0"
     inkscape:pageshadow="2"
     inkscape:window-width="1600"
     inkscape:window-height="852"
     id="namedview4"
     showgrid="false"
     inkscape:zoom="1.3314997"
     inkscape:cx="12.664778"
     inkscape:cy="108.74008"
     inkscape:window-x="0"
     inkscape:window-y="25"
     inkscape:window-maximized="1"
     inkscape:current-layer="g12" /><g
     id="g10"
     inkscape:groupmode="layer"
     inkscape:label="ink_ext_XXXXXX"
     transform="matrix(1.25,0,0,-1.25,0,354.4875)"><g
       id="g12"
       transform="scale(0.1,0.1)"><path
         d="m 1915.22,693 c -237.2,12.27 -234.01,25.93 -536.6,-30.328 l 0,307.117 c 382.97,-1.051 390.54,108.101 307.78,175.091 81.79,-69.93 -61.48,-165.239 -341.55,-137.99 l -0.38,-38.968 c -52.23,-2.102 -126.74,29.738 -258.93,79.038 -2.57,0.95 -5.12,1.39 -7.71,2.05 2.53,36.06 4.13,73.94 4.9,113.53 28.43,77.94 36.22,137.84 15.33,228.74 -0.09,1.36 -0.31,2.69 -0.42,3.99 36.65,-13.25 78.81,-22.07 127.39,-24.63 103.52,-5.47 190.81,9.82 258.5,38.54 -28.56,-107.8 -20.47,-171.56 13.19,-260.59 -1.34,9.26 -1.93,17.9 -2.78,26.73 14.33,253.68 277.44,269.21 394.24,115.08 321.2,-424.091 172.23,-604.791 27.04,-597.4 z m -572.94,15.109 c -54.14,-17.808 -121,-22.961 -183.56,-15.16 -36.96,-21.219 -72.45,-43.687 -110.89,-54.32 -133.822,-36.879 -83.057,66.101 68.44,174.66 -54.33,-36.129 -59.36,-56.988 -151.102,-94.379 -86.91,-35.43 -116.223,27.809 -40.656,115.301 -17.633,-11.473 -38.539,-20.231 -65.532,-23.262 -131.585,-14.84 139.813,251.711 221.85,207.711 96.71,-51.89 179.12,-66.738 263.34,-87.16 l -1.89,-223.391 z M 757.504,737.73 c -170.734,155.18 -64.324,431.8 68.418,618.42 l -11.012,6.19 c 5.278,92.6 -91.176,130.46 -137.703,199.22 -61.305,90.59 43.297,257.26 134.578,283.22 34.621,0 -25.215,-115.66 -28.363,-158.15 27.562,33.08 72.074,137.02 103.851,141.65 52.184,7.56 62.375,-19.51 60.301,-65.31 -64.035,-108.57 -39.875,-265.67 98.816,-344.34 7.48,-17.91 14.26,-36.09 19.76,-54.96 -5.16,-29.53 -19.17,-60.66 -42.28,-93.07 L 856.637,1342 1047.78,1226.35 c 1.25,-64.19 0.46,-122.36 -1.98,-175.53 -69.683,-9.66 -139.784,-99.3 -196.245,-140.8 -61.989,-45.239 -42.52,-166.75 35.379,-99.071 -47.903,-56.289 -16.258,-142.39 62.07,-121.98 -47.629,-38.328 -111.266,-22.309 -189.5,48.761 z m 325.706,453.15 c 0.18,17.77 0.18,35.97 0,54.37 l -30.02,12.84 c 10.39,15.59 19.07,30.89 26.02,45.91 5.41,-35.13 7.11,-72.49 4,-113.12 z M 656.988,2314.9 c 66.649,202.59 185.438,224.42 254.465,237.8 l -119.015,91.96 c 77.39,-12.71 191.195,-40.34 270.132,-82.93 17.06,176.44 187.77,239.77 297.88,258.82 l 12.87,2.22 c -93.45,-22.34 -133.83,-72.13 -79.82,-203.7 244.41,144.24 491.62,20.23 656,-239.76 -57,66.05 -85.94,69.63 -150.14,55.33 43.17,-76.18 53.59,-288.94 36.24,-372.69 -19.87,-2.87 -41.18,-12.46 -63.39,-30.16 l -43.88,-16.72 c -49.13,181.66 -195.58,309 -347.41,408.56 10.95,-155.62 -15.26,-271.94 -57.18,-329.43 -5.61,357.77 -152.65,430.79 -264.75,301.85 -89.885,64.37 -178.138,-54.28 -145.373,-347.87 -31.394,7.68 -47.402,28.14 -78.82,121.67 -0.984,-37.78 4.312,-66.99 13.851,-90.84 -33.406,20.94 -62.886,34.8 -88.738,42.61 -9.004,105.3 5.227,191.53 27.324,257.76 -62.394,0.34 -76.211,-21.31 -130.246,-64.48 z M 1891.55,1334.23 c -99.94,134.35 -363.81,146.46 -398.43,-64.83 5.61,63.02 23.36,118.49 48.59,171.1 22.06,14.74 40.85,31.19 56,49.03 2.62,1.08 4.98,2.07 8.06,3.54 64.42,30.64 187.46,131.21 181.68,338.07 31.26,37.43 53.72,64.04 87.6,68.97 -28.85,13.69 -63.18,9.8 -92.02,-30.99 l -31,60.29 c 19.73,-140.6 -22.45,-305.79 -109.54,-372.08 -2.54,-1.91 -5.52,-4.3 -8.63,-6.9 33.92,93.04 -13.02,203.9 -162.69,286.1 252.29,-228.43 60.28,-418.64 -179.14,-437.62 -297.233,-23.45 -538.186,368.69 -110.61,478.5 -98.8,6.77 -173.17,-32.3 -218.221,-91.21 -2.371,36.21 -12.375,61.87 -41.539,70.21 -42.39,12.05 -61.449,-14.57 -61.187,-12.76 -0.883,15.33 -9.606,25.35 -26.758,26.17 -0.719,54.66 5.976,108.32 13.18,159.64 l -35.512,-100.13 c -34.34,24.32 -76.192,43.39 -110.52,21.38 39.379,-13.11 74.727,-19.48 106.035,-56.93 -0.273,-9.82 -0.179,-19.17 -0.179,-28.58 -1.91,-0.59 -3.594,-1 -5.61,-1.75 -43.382,-16.23 -81.304,-43.86 -109.73,-78.1 -4.293,5.83 -8.313,12.25 -11.711,19.71 -52.383,115.5 -101.707,382.3 170.227,271.01 20.539,-48.55 58.953,-74.5 97.859,-105.06 -30.691,246.33 17.707,452.35 113.526,397.42 160.04,137.2 225.58,-38.76 234.56,-335.71 88.88,123.36 109.55,211.57 101.18,351.82 58.64,-33.09 127.83,-87.53 184.71,-154.31 -51.07,22.98 -111.72,12.65 -162.38,-23.47 l 18.43,-23.72 c 61.46,33.4 125.59,25.48 187.03,-18.42 l 2.29,5.13 c 48.53,-74.14 77.68,-158.35 63.45,-243.19 l 105.06,110.55 c 161.17,39.55 161.88,-180.13 111.58,-290.93 -31.04,-68.31 -103.99,-65.76 -136.31,-57.66 l -15.1,-33.38 c 88.8,-26.29 172.54,54.04 190.82,97.1 55.8,131.49 8.65,287.75 -78.48,308.42 14.66,135.27 -0.78,278.79 -42.43,360.8 39.54,22.84 78.18,-14.06 152.84,-71.12 -149.17,292.98 -370.66,455.51 -669.2,313.52 -31.61,85.74 -3.19,139.84 85.06,162.46 l 44.91,7.64 c -104.79,13.34 -378.65,-40.08 -410.81,-223.6 -98.818,43.09 -207.084,62.23 -318.103,74.6 L 879.27,2557.32 c -164.622,-31.64 -237.875,-177.16 -279.676,-319.29 52.851,63.95 137.082,123.29 153.16,104.47 -22.211,-40.46 -37.379,-190.06 -26.918,-213.79 -137.969,14.43 -144.941,-177.47 -85.531,-317.61 5.758,-13.54 18.343,-30.7 35.215,-47.11 -41.875,-63.3 -52.375,-143.83 -7.723,-218.98 39.433,-66.42 124.176,-91.06 125.062,-170.46 l -9.437,5.24 C 556.926,944.789 656.988,784.539 699.117,742.43 c 28.496,-28.52 84.258,-71.668 138.379,-85.711 40.336,-10.539 71.766,-10.207 105.973,-2.41 -0.5,-20.911 22.308,-41.329 54.75,-41.629 32.461,-0.321 114.491,22.75 162.861,56.621 18.5,-3.352 132.52,-14.75 180.74,8.859 1.07,-12.91 1.07,-57.879 1.07,-57.879 0,0 153.98,20.43 170.35,21.66 19.48,1.489 64.11,6.75 78.63,8.329 14.48,1.531 54.22,8.968 124.95,5.57 89.03,-4.289 219.17,-11.199 271.95,1.82 30.6,6.602 77.47,30.059 98.43,55.192 86.66,108.418 6.47,349.948 -195.65,621.378"
         style="fill:#72b657;fill-opacity:1;fill-rule:nonzero;stroke:#72b657;stroke-opacity:1;stroke-width:30;stroke-miterlimit:4;stroke-dasharray:none;stroke-linecap:round;stroke-linejoin:round"
         id="path14"
         inkscape:connector-curvature="0" /><path
         d="m 953.645,1934.05 10.543,-23.69 c 64.972,75.49 129.062,83.41 187.052,18.44 l 18.46,23.72 c -64.11,74.65 -151.96,82.55 -216.055,-18.47"
         style="fill:#72b657;fill-opacity:1;fill-rule:nonzero;stroke:#72b657;stroke-opacity:1;stroke-width:30;stroke-miterlimit:4;stroke-dasharray:none;stroke-linecap:round;stroke-linejoin:round"
         id="path16"
         inkscape:connector-curvature="0" /><path
         d="m 995.898,899.02 c -29.945,-22.321 -53.578,-44.27 -71.386,-64.809 28.343,18.418 48.379,43.75 71.386,64.809"
         style="fill:#72b657;fill-opacity:1;fill-rule:nonzero;stroke:#72b657;stroke-opacity:1;stroke-width:30;stroke-miterlimit:4;stroke-dasharray:none;stroke-linecap:round;stroke-linejoin:round"
         id="path18"
         inkscape:connector-curvature="0" /><path
         d="M 955.586,2183.69 966.145,2160 c 61.475,43.88 125.645,51.82 187.055,18.43 l 18.47,23.73 c -70.24,50.06 -159.86,50.93 -216.084,-18.47"
         style="fill:#72b657;fill-opacity:1;fill-rule:nonzero;stroke:#72b657;stroke-opacity:1;stroke-width:30;stroke-miterlimit:4;stroke-dasharray:none;stroke-linecap:round;stroke-linejoin:round"
         id="path20"
         inkscape:connector-curvature="0" /><path
         d="m 995.898,899.02 c 12.312,9.14 25.562,18.359 40.102,27.589 -15.35,-6.91 -28.08,-16.668 -40.102,-27.589"
         style="fill:#72b657;fill-opacity:1;fill-rule:nonzero;stroke:#72b657;stroke-opacity:1;stroke-width:30;stroke-miterlimit:4;stroke-dasharray:none;stroke-linecap:round;stroke-linejoin:round"
         id="path22"
         inkscape:connector-curvature="0" /><path
         d="m 1429.24,1943.96 18.42,-23.71 c 57.96,64.96 122.07,57.05 187.04,-18.44 l 10.56,23.7 c -64.11,100.97 -151.92,93.09 -216.02,18.45"
         style="fill:#72b657;fill-opacity:1;fill-rule:nonzero;stroke:#72b657;stroke-opacity:1;stroke-width:30;stroke-miterlimit:4;stroke-dasharray:none;stroke-linecap:round;stroke-linejoin:round"
         id="path24"
         inkscape:connector-curvature="0" /><path
         d="m 1686.4,1144.88 c -4.21,3.54 -8.78,7.1 -14.2,10.51 5.02,-3.39 9.66,-6.97 14.2,-10.51"
         style="fill:#72b657;fill-opacity:1;fill-rule:nonzero;stroke:#72b657;stroke-opacity:1;stroke-width:30;stroke-miterlimit:4;stroke-dasharray:none;stroke-linecap:round;stroke-linejoin:round"
         id="path26"
         inkscape:connector-curvature="0" /><path
         d="m 288.84,6.08984 -288.84,0 0,672.35916 286.953,0 0,-86.277 -139.258,0 0,-181.91 125.672,0 0,-81.621 -125.672,0 0,-236.2816 141.145,0 0,-86.26956"
         style="fill:#72b657;fill-opacity:1;fill-rule:nonzero;stroke:#72b657;stroke-opacity:1;stroke-linecap:round;stroke-linejoin:round"
         id="path28"
         inkscape:connector-curvature="0" /><path
         d="m 334.734,275.219 134.106,0 0,-154.258 c 0,-15.32 9.305,-22.9922 27.906,-22.9922 17.973,0 26.961,7.6722 26.961,22.9922 l 0,79.73 c 0,24.387 -16.273,52.969 -48.762,85.778 -62.82,60.953 -101.925,101.922 -117.218,122.84 -15.34,20.929 -22.993,43.91 -22.993,68.929 l 0,75.5 c 0,87.192 56.965,130.813 170.914,130.813 102.051,0 153.079,-39.711 153.079,-119.09 l 0,-116.281 -134.094,0 0,123.761 c 0,13.457 -7.5,20.168 -22.461,20.168 -17.531,0 -26.281,-12.98 -26.281,-38.898 l 2.797,-43.602 c 0,-25.031 16.609,-54.097 49.828,-87.23 61.726,-59.078 100.972,-100.328 117.734,-123.789 16.773,-23.43 25.145,-50 25.145,-79.699 l 0,-85.789 C 671.395,44.6914 614.27,0 500.023,0 389.824,0 334.734,40.6211 334.734,121.91 l 0,153.309"
         style="fill:#72b657;fill-opacity:1;fill-rule:nonzero;stroke:#72b657;stroke-opacity:1;stroke-linecap:round;stroke-linejoin:round"
         id="path30"
         inkscape:connector-curvature="0" /><path
         d="m 1014.01,6.08984 -288.83,0 0,672.35916 59.425,0 54.961,-20.961 103.903,-3.179 30.168,-23.329 38.513,-8.308 0,-30.5 -139.263,0 0,-181.91 125.648,0 0,-81.621 -125.648,0 0,-236.2816 141.123,0 0,-86.26956"
         style="fill:#72b657;fill-opacity:1;fill-rule:nonzero;stroke:#72b657;stroke-opacity:1;stroke-linecap:round;stroke-linejoin:round"
         id="path32"
         inkscape:connector-curvature="0" /><path
         d="m 1546.6,6.08984 -337.12,0 0,89.08206 165.95,304.7581 c 18.14,33.148 27.23,78.468 27.23,135.98 0,30.012 -10.02,45.031 -30.01,45.031 -20.62,0 -30.96,-9.402 -30.96,-28.14 l 0,-115.36 -132.21,0 0,117.219 c 0,80.141 47.64,123.18 142.97,129.168 7.66,0.481 9.27,-26.59 17.58,-26.59 17.51,0 38.72,1.09 53.24,-0.976 18.28,-2.621 35.29,18.379 48.78,12.519 17.85,-7.742 31.53,-18.351 41.03,-31.84 22.34,-31.711 33.52,-83.863 33.52,-156.351 0,-28.442 -4.85,-51.899 -14.53,-70.328 L 1365.9,92.3594 l 180.7,0 0,-86.26956"
         style="fill:#72b657;fill-opacity:1;fill-rule:nonzero;stroke:#72b657;stroke-opacity:1;stroke-linecap:round;stroke-linejoin:round"
         id="path34"
         inkscape:connector-curvature="0" /><path
         d="m 1791.39,113.922 0,458.109 c 0,13.438 -7.99,20.141 -23.93,20.141 -16.89,0 -25.32,-6.703 -25.32,-20.141 l 0,-458.109 c 0,-13.434 8.43,-20.1407 25.32,-20.1407 15.94,0 23.93,6.7067 23.93,20.1407 z m -196.93,7.039 0,432.777 c 0,87.192 57.96,130.813 173.96,130.813 113.75,0 170.66,-43.301 170.66,-129.891 l 0,-432.75 c 0,-38.7694 -16.03,-68.7694 -48.06,-90.0116 C 1858.97,10.6289 1817.77,0 1767.46,0 c -51.91,0 -93.71,10.4609 -125.39,31.3984 -31.75,20.9336 -47.61,50.793 -47.61,89.5626"
         style="fill:#72b657;fill-opacity:1;fill-rule:nonzero;stroke:#72b657;stroke-opacity:1;stroke-linecap:round;stroke-linejoin:round"
         id="path36"
         inkscape:connector-curvature="0" /><path
         d="m 2192.68,6.08984 -147.68,0 0,492.78916 -56.27,0 0,97.98 c 21.44,0 39.53,9.243 54.28,27.68 14.75,18.441 22.15,36.391 22.15,53.91 l 127.52,0 0,-672.35916"
         style="fill:#72b657;fill-opacity:1;fill-rule:nonzero;stroke:#72b657;stroke-opacity:1;stroke-linecap:round;stroke-linejoin:round"
         id="path38"
         inkscape:connector-curvature="0" /><g
         transform="scale(1,-1)"
         style="font-size:320px;font-style:normal;font-weight:normal;line-height:125%;letter-spacing:0px;word-spacing:0px;fill:#72b657;fill-opacity:1;stroke:#72b657;stroke-opacity:1;font-family:Sans;stroke-linecap:round;stroke-linejoin:round"
         id="text3017"><path
           d="m 2638.177,-94.747057 -73.125,0 0,86.25 -143.9062,0 0,-86.25 -199.6875,0 0,-95.156253 144.8437,-490.78125 198.75,0 0,485.15625 73.125,0 0,100.781253 m -217.0312,-100.781253 0,-265.3125 -67.0313,265.3125 67.0313,0"
           style="font-size:960px;font-variant:normal;font-weight:500;font-stretch:normal;fill:#72b657;stroke:#72b657;font-family:Haettenschweiler;-inkscape-font-specification:Haettenschweiler Medium;stroke-linecap:round;stroke-linejoin:round"
           id="path3884" /></g></g></g></svg>