<?xml version="1.0" encoding="UTF-8" standalone="no"?>
<svg
   xmlns:dc="http://purl.org/dc/elements/1.1/"
   xmlns:cc="http://creativecommons.org/ns#"
   xmlns:rdf="http://www.w3.org/1999/02/22-rdf-syntax-ns#"
   xmlns:svg="http://www.w3.org/2000/svg"
   xmlns="http://www.w3.org/2000/svg"
   viewBox="0 0 330.84998 354.48749"
   height="354.48749"
   width="330.84998"
   xml:space="preserve"
   version="1.1"
   id="svg2"><metadata
     id="metadata8"><rdf:RDF><cc:Work
         rdf:about=""><dc:format>image/svg+xml</dc:format><dc:type
           rdf:resource="http://purl.org/dc/dcmitype/StillImage" /><dc:title></dc:title></cc:Work></rdf:RDF></metadata><defs
     id="defs6" /><g
     transform="matrix(1.25,0,0,-1.25,0,354.48749)"
     id="g10"><g
       id="g12"><g
         transform="translate(0,283.59)"
         id="g58" /><path
         d="m 191.523,69.301 c -23.722,1.227 -23.402,2.594 -53.66,-3.035 l 0,30.715 c 38.297,-0.106 39.051,10.808 30.778,17.507 8.179,-6.992 -6.149,-16.523 -34.157,-13.8 l -0.039,-3.895 c -5.222,-0.211 -12.672,2.973 -25.89,7.902 -0.258,0.094 -0.512,0.141 -0.774,0.207 0.254,3.606 0.414,7.391 0.492,11.352 2.844,7.793 3.622,13.785 1.532,22.875 -0.008,0.137 -0.032,0.27 -0.039,0.399 3.664,-1.325 7.879,-2.208 12.738,-2.465 10.351,-0.547 19.082,0.984 25.848,3.855 -2.856,-10.781 -2.047,-17.156 1.32,-26.058 -0.133,0.925 -0.192,1.789 -0.277,2.671 1.433,25.368 27.742,26.922 39.421,11.508 32.122,-42.41 17.223,-60.476 2.707,-59.738 z m -57.296,1.512 c -5.415,-1.782 -12.098,-2.297 -18.356,-1.52 -3.695,-2.121 -7.242,-4.367 -11.09,-5.43 -13.379,-3.687 -8.304,6.61 6.848,17.465 -5.434,-3.613 -5.938,-5.699 -15.113,-9.437 -8.692,-3.543 -11.621,2.781 -4.063,11.531 -1.765,-1.148 -3.855,-2.023 -6.555,-2.328 -13.16,-1.484 13.981,25.172 22.184,20.773 9.672,-5.191 17.914,-6.675 26.336,-8.718 L 134.227,70.813 Z M 75.75,73.774 c -17.074,15.515 -6.434,43.179 6.844,61.839 l -1.102,0.622 c 0.528,9.257 -9.117,13.046 -13.773,19.921 -6.129,9.059 4.332,25.727 13.461,28.321 3.461,0 -2.524,-11.567 -2.836,-15.813 2.754,3.309 7.207,13.699 10.383,14.164 5.218,0.754 6.238,-1.953 6.031,-6.531 -6.403,-10.855 -3.988,-26.566 9.883,-34.434 0.746,-1.793 1.425,-3.609 1.972,-5.496 -0.515,-2.953 -1.914,-6.066 -4.226,-9.308 l -16.723,7.14 19.113,-11.562 c 0.125,-6.422 0.047,-12.238 -0.199,-17.555 C 97.613,104.117 90.602,95.152 84.957,91 78.758,86.477 80.703,74.328 88.492,81.094 83.703,75.465 86.867,66.856 94.699,68.899 89.938,65.063 83.574,66.664 75.75,73.774 Z m 32.57,45.312 c 0.02,1.777 0.02,3.598 0,5.438 l -3,1.285 c 1.039,1.558 1.907,3.09 2.602,4.59 0.539,-3.512 0.711,-7.247 0.398,-11.313 z M 65.699,231.488 c 6.664,20.262 18.543,22.446 25.446,23.782 l -11.903,9.195 c 7.742,-1.27 19.121,-4.031 27.016,-8.293 1.707,17.645 18.777,23.977 29.789,25.883 l 1.285,0.223 c -9.344,-2.235 -13.383,-7.215 -7.98,-20.372 24.437,14.426 49.16,2.024 65.597,-23.976 -5.699,6.605 -8.594,6.965 -15.011,5.535 4.316,-7.617 5.359,-28.895 3.621,-37.27 -1.985,-0.289 -4.118,-1.246 -6.336,-3.015 l -4.391,-1.672 c -4.91,18.164 -19.559,30.898 -34.738,40.855 1.094,-15.562 -1.528,-27.195 -5.719,-32.945 -0.563,35.777 -15.266,43.082 -26.477,30.188 -8.988,6.437 -17.812,-5.43 -14.535,-34.789 -3.14,0.769 -4.742,2.816 -7.883,12.168 -0.097,-3.778 0.43,-6.7 1.383,-9.083 -3.34,2.094 -6.285,3.477 -8.871,4.258 -0.902,10.532 0.524,19.157 2.731,25.778 -6.239,0.035 -7.621,-2.129 -13.024,-6.45 z m 123.457,-98.066 c -9.996,13.438 -36.383,14.648 -39.844,-6.48 0.559,6.3 2.336,11.847 4.86,17.109 2.207,1.473 4.086,3.117 5.598,4.902 0.261,0.11 0.5,0.207 0.808,0.356 6.442,3.062 18.746,13.121 18.168,33.804 3.125,3.743 5.371,6.407 8.758,6.899 -2.883,1.367 -6.316,0.98 -9.199,-3.102 l -3.102,6.032 c 1.973,-14.063 -2.246,-30.579 -10.953,-37.207 -0.254,-0.192 -0.555,-0.43 -0.863,-0.692 3.39,9.305 -1.301,20.391 -16.27,28.609 25.231,-22.843 6.028,-41.863 -17.914,-43.761 -29.723,-2.344 -53.82,36.871 -11.062,47.851 -9.879,0.676 -17.317,-3.23 -21.821,-9.121 -0.238,3.621 -1.238,6.188 -4.156,7.02 -4.238,1.207 -6.144,-1.457 -6.117,-1.278 -0.086,1.536 -0.961,2.536 -2.676,2.618 -0.07,5.468 0.598,10.832 1.32,15.964 l -3.554,-10.011 c -3.434,2.429 -7.617,4.34 -11.051,2.136 3.937,-1.308 7.473,-1.949 10.605,-5.691 -0.027,-0.984 -0.019,-1.918 -0.019,-2.859 -0.192,-0.059 -0.36,-0.102 -0.563,-0.176 -4.336,-1.621 -8.129,-4.387 -10.972,-7.809 -0.43,0.582 -0.832,1.227 -1.168,1.969 -5.242,11.551 -10.172,38.231 17.019,27.102 2.055,-4.856 5.899,-7.45 9.789,-10.504 -3.07,24.633 1.77,45.234 11.352,39.742 16.004,13.719 22.559,-3.875 23.457,-33.57 8.887,12.336 10.953,21.156 10.117,35.179 5.863,-3.308 12.781,-8.754 18.469,-15.429 -5.106,2.296 -11.172,1.265 -16.238,-2.348 l 1.843,-2.371 c 6.149,3.34 12.559,2.547 18.703,-1.844 l 0.231,0.516 c 4.851,-7.414 7.766,-15.836 6.344,-24.321 l 10.507,11.055 c 16.118,3.953 16.188,-18.012 11.157,-29.094 -3.106,-6.832 -10.399,-6.574 -13.629,-5.765 l -1.512,-3.336 c 8.879,-2.629 17.254,5.402 19.082,9.707 5.578,13.148 0.863,28.777 -7.848,30.844 1.465,13.527 -0.078,27.878 -4.242,36.078 3.953,2.285 7.817,-1.407 15.282,-7.11 -14.914,29.297 -37.067,45.551 -66.918,31.352 -3.161,8.574 -0.321,13.984 8.504,16.246 l 4.492,0.762 c -10.481,1.336 -37.864,-4.008 -41.082,-22.36 -9.879,4.309 -20.707,6.223 -31.809,7.461 l 16.887,-12.765 c -16.461,-3.164 -23.785,-17.715 -27.965,-31.926 5.285,6.394 13.707,12.328 15.316,10.445 -2.222,-4.047 -3.738,-19.008 -2.695,-21.379 -13.797,1.442 -14.492,-17.746 -8.551,-31.761 0.574,-1.356 1.832,-3.071 3.52,-4.711 -4.188,-6.329 -5.235,-14.383 -0.77,-21.899 3.942,-6.64 12.418,-9.105 12.504,-17.047 l -0.941,0.528 C 55.691,94.481 65.699,78.453 69.91,74.242 c 2.852,-2.851 8.426,-7.168 13.84,-8.57 4.031,-1.055 7.176,-1.02 10.598,-0.242 -0.051,-2.09 2.23,-4.133 5.472,-4.16 3.246,-0.035 11.45,2.273 16.289,5.66 1.848,-0.336 13.25,-1.477 18.075,0.887 0.105,-1.293 0.105,-5.789 0.105,-5.789 0,0 15.399,2.042 17.035,2.167 1.949,0.149 6.41,0.672 7.864,0.833 1.449,0.152 5.421,0.894 12.496,0.554 8.902,-0.426 21.914,-1.117 27.195,0.184 3.059,0.66 7.746,3.008 9.84,5.519 8.668,10.84 0.648,34.996 -19.563,62.137"
         style="fill:#573b75;fill-opacity:1;fill-rule:nonzero;stroke:#573b75;stroke-width:3;stroke-linecap:round;stroke-linejoin:round;stroke-miterlimit:4;stroke-dasharray:none;stroke-opacity:1"
         id="path16" /><g
         transform="translate(0,283.59)"
         id="g18"><path
           id="path20"
           style="fill:#573b75;fill-opacity:1;fill-rule:nonzero;stroke:#573b75;stroke-width:3;stroke-linecap:round;stroke-linejoin:round;stroke-miterlimit:4;stroke-dasharray:none;stroke-opacity:1"
           d="m 95.363,-90.184 1.055,-2.371 c 6.496,7.551 12.906,8.34 18.707,1.844 l 1.844,2.371 c -6.41,7.469 -15.196,8.258 -21.606,-1.844" /></g><g
         transform="translate(0,283.59)"
         id="g22"><path
           id="path24"
           style="fill:#573b75;fill-opacity:1;fill-rule:nonzero;stroke:#573b75;stroke-width:3;stroke-linecap:round;stroke-linejoin:round;stroke-miterlimit:4;stroke-dasharray:none;stroke-opacity:1"
           d="m 99.59,-193.688 c -2.996,-2.234 -5.36,-4.425 -7.137,-6.48 2.832,1.84 4.836,4.375 7.137,6.48" /></g><g
         transform="translate(0,283.59)"
         id="g26"><path
           id="path28"
           style="fill:#573b75;fill-opacity:1;fill-rule:nonzero;stroke:#573b75;stroke-width:3;stroke-linecap:round;stroke-linejoin:round;stroke-miterlimit:4;stroke-dasharray:none;stroke-opacity:1"
           d="m 95.559,-65.223 1.054,-2.367 c 6.149,4.387 12.567,5.184 18.707,1.844 l 1.848,2.371 c -7.023,5.008 -15.988,5.094 -21.609,-1.848" /></g><g
         transform="translate(0,283.59)"
         id="g30"><path
           id="path32"
           style="fill:#573b75;fill-opacity:1;fill-rule:nonzero;stroke:#573b75;stroke-width:3;stroke-linecap:round;stroke-linejoin:round;stroke-miterlimit:4;stroke-dasharray:none;stroke-opacity:1"
           d="m 99.59,-193.688 c 1.23,0.915 2.555,1.836 4.012,2.758 -1.536,-0.691 -2.809,-1.668 -4.012,-2.758" /></g><g
         transform="translate(0,283.59)"
         id="g34"><path
           id="path36"
           style="fill:#573b75;fill-opacity:1;fill-rule:nonzero;stroke:#573b75;stroke-width:3;stroke-linecap:round;stroke-linejoin:round;stroke-miterlimit:4;stroke-dasharray:none;stroke-opacity:1"
           d="m 142.926,-89.195 1.84,-2.371 c 5.796,6.496 12.207,5.707 18.703,-1.844 l 1.058,2.371 c -6.414,10.098 -15.191,9.309 -21.601,1.844" /></g><g
         transform="translate(0,283.59)"
         id="g38"><path
           id="path40"
           style="fill:#573b75;fill-opacity:1;fill-rule:nonzero;stroke:#573b75;stroke-width:3;stroke-linecap:round;stroke-linejoin:round;stroke-miterlimit:4;stroke-dasharray:none;stroke-opacity:1"
           d="m 168.641,-169.102 c -0.422,0.356 -0.879,0.711 -1.422,1.051 0.504,-0.34 0.969,-0.695 1.422,-1.051" /></g><g
         transform="translate(0,283.59)"
         id="g42"><path
           id="path44"
           style="fill:#573b75;fill-opacity:1;fill-rule:nonzero;stroke:#573b75;stroke-width:0.1;stroke-linecap:round;stroke-linejoin:round;stroke-miterlimit:4;stroke-dasharray:none;stroke-opacity:1"
           d="m 28.883,-282.98 -28.883,0 0,67.234 28.695,0 0,-8.625 -13.925,0 0,-18.191 12.566,0 0,-8.165 -12.566,0 0,-23.628 14.113,0 0,-8.625" /></g><g
         transform="translate(0,283.59)"
         id="g46"><path
           id="path48"
           style="fill:#573b75;fill-opacity:1;fill-rule:nonzero;stroke:#573b75;stroke-width:0.1;stroke-linecap:round;stroke-linejoin:round;stroke-miterlimit:4;stroke-dasharray:none;stroke-opacity:1"
           d="m 33.473,-256.066 13.41,0 0,-15.426 c 0,-1.535 0.933,-2.301 2.793,-2.301 1.797,0 2.695,0.766 2.695,2.301 l 0,7.972 c 0,2.438 -1.629,5.297 -4.875,8.579 -6.285,6.093 -10.195,10.191 -11.723,12.281 -1.535,2.094 -2.3,4.39 -2.3,6.894 l 0,7.551 c 0,8.719 5.695,13.078 17.093,13.078 10.204,0 15.305,-3.968 15.305,-11.906 l 0,-11.629 -13.406,0 0,12.375 c 0,1.348 -0.75,2.02 -2.246,2.02 -1.754,0 -2.629,-1.301 -2.629,-3.891 l 0.277,-4.359 c 0,-2.504 1.664,-5.411 4.985,-8.727 6.171,-5.906 10.097,-10.031 11.773,-12.379 1.676,-2.34 2.516,-5 2.516,-7.969 l 0,-8.578 c 0,-8.941 -5.715,-13.41 -17.137,-13.41 -11.024,0 -16.531,4.063 -16.531,12.192 l 0,15.332" /></g><g
         transform="translate(0,283.59)"
         id="g50"><path
           id="path52"
           style="fill:#573b75;fill-opacity:1;fill-rule:nonzero;stroke:#573b75;stroke-width:0.1;stroke-linecap:round;stroke-linejoin:round;stroke-miterlimit:4;stroke-dasharray:none;stroke-opacity:1"
           d="m 101.402,-282.98 -28.882,0 0,67.234 5.941,0 5.496,-2.094 10.391,-0.32 3.015,-2.332 3.852,-0.832 0,-3.047 -13.926,0 0,-18.191 12.563,0 0,-8.165 -12.563,0 0,-23.628 14.113,0 0,-8.625" /></g><g
         transform="translate(0,283.59)"
         id="g54"><path
           id="path56"
           style="fill:#573b75;fill-opacity:1;fill-rule:nonzero;stroke:#573b75;stroke-width:0.1;stroke-linecap:round;stroke-linejoin:round;stroke-miterlimit:4;stroke-dasharray:none;stroke-opacity:1"
           d="m 154.66,-282.98 -33.711,0 0,8.906 16.594,30.476 c 1.812,3.317 2.723,7.848 2.723,13.598 0,3.004 -1,4.504 -3,4.504 -2.063,0 -3.098,-0.942 -3.098,-2.813 l 0,-11.539 -13.219,0 0,11.723 c 0,8.016 4.762,12.32 14.297,12.918 0.766,0.047 0.926,-2.66 1.758,-2.66 1.75,0 3.871,0.109 5.324,-0.098 1.828,-0.262 3.527,1.84 4.875,1.254 1.785,-0.773 3.156,-1.836 4.106,-3.184 2.234,-3.171 3.351,-8.386 3.351,-15.636 0,-2.844 -0.484,-5.192 -1.453,-7.031 l -16.617,-31.793 18.07,0 0,-8.625" /></g><path
         id="path60"
         style="fill:#573b75;fill-opacity:1;fill-rule:nonzero;stroke:#573b75;stroke-width:0.1;stroke-linecap:round;stroke-linejoin:round;stroke-miterlimit:4;stroke-dasharray:none;stroke-opacity:1"
         d="m 179.141,11.391 0,45.812 c 0,1.344 -0.801,2.016 -2.395,2.016 -1.687,0 -2.531,-0.672 -2.531,-2.016 l 0,-45.812 c 0,-1.344 0.844,-2.012 2.531,-2.012 1.594,0 2.395,0.668 2.395,2.012 z m -19.696,0.707 0,43.277 c 0,8.719 5.797,13.078 17.399,13.078 11.375,0 17.062,-4.328 17.062,-12.988 l 0,-43.273 c 0,-3.879 -1.601,-6.879 -4.804,-9 C 185.898,1.063 181.777,0 176.746,0 c -5.191,0 -9.371,1.047 -12.539,3.141 -3.176,2.094 -4.762,5.078 -4.762,8.957" /><g
         transform="translate(0,283.59)"
         id="g62"><path
           id="path64"
           style="fill:#573b75;fill-opacity:1;fill-rule:nonzero;stroke:#573b75;stroke-width:0.1;stroke-linecap:round;stroke-linejoin:round;stroke-miterlimit:4;stroke-dasharray:none;stroke-opacity:1"
           d="m 219.27,-282.98 -14.77,0 0,49.277 -5.629,0 0,9.801 c 2.145,0 3.953,0.922 5.43,2.765 1.476,1.844 2.215,3.641 2.215,5.391 l 12.754,0 0,-67.234" /></g><g
         transform="matrix(1,0,0,-1,0,283.59)"
         id="g66"><path
           id="path68"
           style="fill:#573b75;fill-opacity:1;fill-rule:nonzero;stroke:#573b75;stroke-width:0.1;stroke-linecap:butt;stroke-linejoin:miter;stroke-miterlimit:4;stroke-dasharray:none;stroke-opacity:1"
           d="m 259.953,215.688 -2.297,10.203 -16.734,0 -0.656,13.015 c 1.468,-1.476 4.031,-2.218 7.687,-2.218 7.75,0 11.625,3.328 11.625,9.984 l 0,23.828 c 0,3.887 -1.547,6.891 -4.64,9.016 -3.094,2.117 -7.157,3.172 -12.188,3.172 -11.25,0 -16.875,-4.024 -16.875,-12.079 l 0,-16.718 14.391,0 0,17.187 c 0,1.469 0.828,2.203 2.484,2.203 1.625,0 2.438,-0.734 2.438,-2.203 l 0,-22.266 c 0,-1.582 -0.907,-2.374 -2.719,-2.374 -1.657,0 -2.516,1.304 -2.578,3.906 l -13.829,0 0.75,-34.656 33.141,0 z" /></g></g></g></svg>